<?xml version="1.0" encoding="utf-8"?>
<!-- Generator: Adobe Illustrator 29.5.0, SVG Export Plug-In . SVG Version: 9.03 Build 0)  -->
<svg version="1.0" id="Layer_1" xmlns="http://www.w3.org/2000/svg" xmlns:xlink="http://www.w3.org/1999/xlink" x="0px" y="0px"
	 viewBox="0 0 500 500" style="enable-background:new 0 0 500 500;" xml:space="preserve">
<style type="text/css">
	.st0{fill:#184E37;}
</style>
<g>
	<path class="st0" d="M260.25,118.87c-1.65,13.89-20.17,24.01-29.79,32.71c-3.98,3.6-7.53,7.6-11.22,11.48
		c1.23-8.29,3.63-16.42,4.81-24.73c1.23-8.6,0.96-17.65,3.24-26.06c3.87-14.3,18.72-34.88,34.66-36.15l65.47-0.01l2.56,1.84
		l0.12,129.8c-2.21,67.05-92.95,92.48-128.64,35.34c-24.02-38.46,1.37-68.98-3.77-108.04c-1.21-9.21-4.13-18.09-7.51-26.67
		l-3.65-6.84c1.3,5.86,3.13,11.56,4.24,17.49c3.32,17.86,3.97,36.74-1.06,54.29c-17.43-14.78-27.65-32.39-26.15-55.93
		c1.14-17.84,11.62-34.26,10.28-52.47c0.8-0.9,10.39,6.9,11.46,7.82c14.13,12.23,26.03,28.67,28.5,47.68
		c2.92,22.5-8.06,47.79-11.08,70.3c-1.05,7.84-1.36,15.22-0.55,23.12c0.96-0.2,0.84-1,0.97-1.71c5.91-31.54,27.64-58.93,59.47-67
		c10.41-2.64,21.14-2.64,31.84-2.58c-10.74,21.43-21.16,47.37-42.82,59.96c-8.84,5.14-18.93,8.06-28.96,9.86
		c7.26-21.12,22.17-37.92,41.01-49.56c-0.33-0.68-1.24,0.09-1.71,0.25c-21.28,7.05-46.08,39.04-48.09,61.29
		c-2.75,30.44,35.8,44.11,60.3,36.38c17.9-5.65,35.1-27.11,24.41-45.91c-5.79-10.19-19.42-12.51-28.31-4.86
		c-7.9,6.79-8.56,20.07,2.19,24.15c4.49,1.71,7.24,0.67,11.71,0.98c-10.3,12.49-29.88,4.59-31.24-10.75
		c-1.95-21.88,22.08-36.06,41.49-28.3c12.67,5.06,18.85,18.47,19.54,31.48l2.08-5c3.89-11.7,2.56-23.7,2.78-35.79
		c0.49-27.14,0.94-54.85,0.55-82.02c-0.08-5.88-1.27-12.03-0.04-17.81h-59.08V118.87z M237.3,133.27l9.77-28.8
		c-5.65,7.49-9.34,17.76-10.19,27.16C236.83,132.17,236.42,133.38,237.3,133.27z"/>
	<polygon class="st0" points="122.07,335.42 122.07,296.36 134.28,296.36 134.28,356.9 122.07,356.9 94.73,318.33 94.73,356.9 
		82.03,356.9 82.03,297.09 82.76,296.36 93.51,296.36 	"/>
	<path class="st0" d="M343.99,296.36c3.49,0.28,8.38,1.49,11.45,3.2c13.39,7.45,11.99,29.55-2.39,34.9l-0.03,0.7l13.19,21.74h-14.89
		l-12.44-20.76c-0.39-0.15-0.64,0.26-0.74,0.26h-9.03v20.51h-12.7v-60.55C325.37,296.89,335.13,295.64,343.99,296.36z M329.1,325.16
		h14.89c0.26,0,2.75-0.95,3.21-1.19c5.46-2.88,5.76-10.99,0.62-14.36c-0.42-0.28-3.12-1.54-3.34-1.54H329.1V325.16z"/>
	<path class="st0" d="M214.84,373.5v38.82c0,0.85,1.32,4.56,1.85,5.47c3.92,6.68,15.19,7.5,19.85,1.09
		c0.32-0.44,2.23-3.88,2.23-4.12v-40.53l0.73-0.73h11.72l0.73,0.73v39.06c0,23.81-38.37,30.47-47.94,8.39
		c-0.83-1.91-2.35-6.98-2.35-8.88V373.5H214.84z"/>
	<path class="st0" d="M417.97,308.07h-28.81v13.18h24.9v10.01l-0.73,0.63c-0.2,0.01-0.37-0.38-0.49-0.38h-23.68v13.67
		c0.53,0.18,1.07-0.49,1.22-0.49h27.59v12.21h-41.5v-59.81l0.79-0.62c0.7,0.4,1.5-0.11,1.89-0.11h38.09l0.73,0.73V308.07z"/>
	<path class="st0" d="M203.61,356.9H189.7l-5.44-12.14c-6.69,0.51-14.95-0.9-21.45-0.09c-0.6,0.07-0.98-0.04-1.44,0.51
		c-1.88,2.26-2.42,9.29-4.88,11.72h-13.43l24.41-60.31c0.58-0.35,9.83-0.45,10.99-0.24c0.54,0.1,0.94,0.24,1.18,0.77L203.61,356.9z
		 M173.83,312.96l-1.09,0.62l-7.21,20.37c5.12-0.96,10.43-0.29,15.62-0.49L173.83,312.96z"/>
	<path class="st0" d="M255.86,296.36c3.73,0.51,8.28-0.45,11.96,0.01c1.77,0.22,0.73,1.39,0.71,2.65
		c-0.14,10.64-0.81,23.84,0.01,34.23c0.72,9.13,7.06,14.19,16.26,12.32c3.28-0.66,8.17-6.09,8.17-9.41v-39.06l0.73-0.73h11.23
		c0.55,0,0.71,1.2,0.76,1.72c0.86,9.23,0.5,24.71-0.01,34.19c-0.92,16.97-10.36,27.2-28.09,25.61c-10.06-0.9-21.74-9.98-21.74-20.74
		V296.36z"/>
	<path class="st0" d="M158.69,414.52v19.53h-13.18V373.5h27.1c15.69,0,25.4,15.37,18.89,29.63c-2.31,5.07-10.29,11.38-15.96,11.38
		H158.69z M158.69,403.78h13.92c0.37,0,2.99-1.06,3.52-1.36c5.66-3.24,5.51-13.42-0.32-16.49c-0.46-0.24-2.94-1.19-3.21-1.19h-13.92
		V403.78z"/>
	<path class="st0" d="M326.66,414.52v19.53h-13.18V373.5h26.61c22.9,0,28.42,32.19,7.34,39.57c-0.85,0.3-4.83,1.45-5.39,1.45H326.66
		z M326.66,403.78h12.45c1.02,0,4.73-1.92,5.57-2.73c3.84-3.7,3.24-11.82-1.25-14.77c-0.42-0.28-3.12-1.54-3.34-1.54h-13.43V403.78z
		"/>
	<path class="st0" d="M247.07,308.07H229v48.83h-12.45l-0.63-0.73c-0.01-0.2,0.38-0.37,0.38-0.49v-47.61h-18.07
		c0.76-3.47,0.76-7.47,0.05-10.95l0.68-0.77h47.36l0.73,0.73V308.07z"/>
	<path class="st0" d="M277.34,373.5v48.83h26.86c0.13,0.36-0.49,0.58-0.49,0.73v9.77c0,0.17,0.87,0.54-0.24,1.22h-38.82V373.5
		H277.34z"/>
</g>
</svg>
